<?xml version="1.0" encoding="UTF-8" standalone="no"?><!-- Created with Inkscape (http://www.inkscape.org/) --><svg xmlns:dc="http://purl.org/dc/elements/1.1/" xmlns:cc="http://creativecommons.org/ns#" xmlns:rdf="http://www.w3.org/1999/02/22-rdf-syntax-ns#" xmlns:svg="http://www.w3.org/2000/svg" xmlns="http://www.w3.org/2000/svg" xmlns:xlink="http://www.w3.org/1999/xlink" xmlns:sodipodi="http://sodipodi.sourceforge.net/DTD/sodipodi-0.dtd" xmlns:inkscape="http://www.inkscape.org/namespaces/inkscape" width="252.07481" height="274.7077" viewBox="0 0 66.694792 72.683081" version="1.1" id="svg23489" inkscape:version="0.48.5 r10040" sodipodi:docname="agility.svg">
  <defs id="defs23483">
    <linearGradient inkscape:collect="always" xlink:href="#linearGradient8702" id="linearGradient8708" x1="4106.0771" y1="541.58252" x2="4106.0771" y2="395.89636" gradientUnits="userSpaceOnUse" gradientTransform="matrix(0.26458334,0,0,0.26458334,-108.2891,-72.947914)"/>
    <linearGradient inkscape:collect="always" id="linearGradient8702">
      <stop style="stop-color:#99ff41;stop-opacity:1;" offset="0" id="stop8704"/>
      <stop style="stop-color:#99ff41;stop-opacity:0;" offset="1" id="stop8706"/>
    </linearGradient>
    <filter color-interpolation-filters="sRGB" inkscape:collect="always" id="filter8732">
      <feGaussianBlur inkscape:collect="always" stdDeviation="1.3628202" id="feGaussianBlur8734"/>
    </filter>
    <radialGradient inkscape:collect="always" xlink:href="#linearGradient8718" id="radialGradient8726" cx="4125.978" cy="560.09344" fx="4125.978" fy="560.09344" r="158.1563" gradientTransform="matrix(7.455549e-6,-1.2381726,0.92158475,1.4971991e-7,3606.6083,5655.2769)" gradientUnits="userSpaceOnUse"/>
    <linearGradient inkscape:collect="always" id="linearGradient8718">
      <stop style="stop-color:#86ff1e;stop-opacity:1;" offset="0" id="stop8720"/>
      <stop style="stop-color:#86ff1e;stop-opacity:0;" offset="1" id="stop8722"/>
    </linearGradient>
    <linearGradient inkscape:collect="always" xlink:href="#linearGradient8644" id="linearGradient8691" gradientUnits="userSpaceOnUse" x1="962.13086" y1="30.711159" x2="962.13086" y2="7.3513131"/>
    <linearGradient inkscape:collect="always" id="linearGradient8644">
      <stop style="stop-color:#549a16;stop-opacity:1" offset="0" id="stop8646"/>
      <stop style="stop-color:#7fdb2f;stop-opacity:1" offset="1" id="stop8648"/>
    </linearGradient>
    <linearGradient inkscape:collect="always" xlink:href="#linearGradient8616" id="linearGradient9648" gradientUnits="userSpaceOnUse" gradientTransform="matrix(3.7795275,0,0,3.7795275,428.52756,275.70865)" x1="1008.5485" y1="50.906364" x2="1008.5485" y2="40.090443"/>
    <linearGradient inkscape:collect="always" id="linearGradient8616">
      <stop style="stop-color:#396612;stop-opacity:1;" offset="0" id="stop8618"/>
      <stop style="stop-color:#447a16;stop-opacity:1" offset="1" id="stop8620"/>
    </linearGradient>
    <linearGradient inkscape:collect="always" xlink:href="#linearGradient8616" id="linearGradient8685" gradientUnits="userSpaceOnUse" gradientTransform="matrix(3.7795275,0,0,3.7795275,428.52756,275.70865)" x1="1008.5485" y1="50.906364" x2="1008.5485" y2="40.090443"/>
    <linearGradient inkscape:collect="always" xlink:href="#linearGradient8616" id="linearGradient8687" gradientUnits="userSpaceOnUse" x1="1008.5485" y1="50.906364" x2="1008.5485" y2="40.090443"/>
    <linearGradient inkscape:collect="always" xlink:href="#linearGradient8624" id="linearGradient8689" gradientUnits="userSpaceOnUse" x1="991.40607" y1="55.837749" x2="996.20618" y2="37.923412"/>
    <linearGradient inkscape:collect="always" id="linearGradient8624">
      <stop style="stop-color:#68ba20;stop-opacity:1;" offset="0" id="stop8626"/>
      <stop style="stop-color:#7fdb2f;stop-opacity:1" offset="1" id="stop8628"/>
    </linearGradient>
    <linearGradient inkscape:collect="always" xlink:href="#linearGradient8644" id="linearGradient8683" gradientUnits="userSpaceOnUse" x1="962.13086" y1="30.711159" x2="962.13086" y2="7.3513131"/>
    <filter color-interpolation-filters="sRGB" inkscape:collect="always" id="filter8740" x="-0.026035218" width="1.0520704" y="-0.4644683" height="1.9289366">
      <feGaussianBlur inkscape:collect="always" stdDeviation="2.8627335" id="feGaussianBlur8742"/>
    </filter>
    <linearGradient inkscape:collect="always" xlink:href="#linearGradient6476" id="linearGradient6607" gradientUnits="userSpaceOnUse" x1="-129.02817" y1="234.07933" x2="-116.73923" y2="245.11621"/>
    <linearGradient id="linearGradient6476" inkscape:collect="always">
      <stop id="stop6478" offset="0" style="stop-color:#369e2a;stop-opacity:1;"/>
      <stop id="stop6480" offset="1" style="stop-color:#9ae41d;stop-opacity:1"/>
    </linearGradient>
    <linearGradient inkscape:collect="always" xlink:href="#linearGradient6369" id="linearGradient6609" gradientUnits="userSpaceOnUse" x1="-131.23386" y1="224.51624" x2="-122.52415" y2="234.29208"/>
    <linearGradient inkscape:collect="always" id="linearGradient6369">
      <stop style="stop-color:#008000;stop-opacity:1;" offset="0" id="stop6371"/>
      <stop style="stop-color:#008000;stop-opacity:0;" offset="1" id="stop6373"/>
    </linearGradient>
    <linearGradient inkscape:collect="always" xlink:href="#linearGradient6322" id="linearGradient6611" gradientUnits="userSpaceOnUse" x1="-126.76644" y1="238.37737" x2="-126.45334" y2="247.6922"/>
    <linearGradient inkscape:collect="always" id="linearGradient6322">
      <stop style="stop-color:#369e2a;stop-opacity:1;" offset="0" id="stop6324"/>
      <stop style="stop-color:#4ea72c;stop-opacity:1" offset="1" id="stop6326"/>
    </linearGradient>
    <linearGradient inkscape:collect="always" xlink:href="#linearGradient6482" id="linearGradient6613" gradientUnits="userSpaceOnUse" x1="-115.8078" y1="242.76082" x2="-126.45334" y2="247.6922"/>
    <linearGradient id="linearGradient6482" inkscape:collect="always">
      <stop id="stop6484" offset="0" style="stop-color:#8bce19;stop-opacity:1"/>
      <stop id="stop6486" offset="1" style="stop-color:#4ea72c;stop-opacity:1"/>
    </linearGradient>
    <linearGradient inkscape:collect="always" xlink:href="#linearGradient6369" id="linearGradient6615" gradientUnits="userSpaceOnUse" x1="-142.36855" y1="237.24487" x2="-123.24471" y2="229.48256"/>
    <linearGradient inkscape:collect="always" xlink:href="#linearGradient6560" id="linearGradient6617" gradientUnits="userSpaceOnUse" x1="-124.73126" y1="234.30701" x2="-126.14024" y2="249.41428"/>
    <linearGradient id="linearGradient6560" inkscape:collect="always">
      <stop id="stop6562" offset="0" style="stop-color:#369e2a;stop-opacity:1;"/>
      <stop id="stop6564" offset="1" style="stop-color:#8bce19;stop-opacity:1"/>
    </linearGradient>
  </defs>
  <sodipodi:namedview id="base" pagecolor="#7d848b" bordercolor="#666666" borderopacity="1.0" inkscape:pageopacity="0" inkscape:pageshadow="2" inkscape:zoom="1.5081922" inkscape:cx="39.703439" inkscape:cy="183.66181" inkscape:document-units="px" inkscape:current-layer="layer1" showgrid="false" inkscape:pagecheckerboard="false" showborder="true" units="px" inkscape:window-width="1920" inkscape:window-height="1017" inkscape:window-x="-8" inkscape:window-y="-8" inkscape:window-maximized="1" inkscape:showpageshadow="false" guidetolerance="28" fit-margin-top="20" fit-margin-right="20" fit-margin-bottom="20" fit-margin-left="20" showguides="true" inkscape:guide-bbox="true">
    <inkscape:grid type="xygrid" id="grid24034" spacingx="1px" spacingy="1px" empspacing="8" visible="true" enabled="true" snapvisiblegridlinesonly="true" originx="-303.62118px" originy="-614.57477px"/>
  </sodipodi:namedview>
  <metadata id="metadata23486">
    <rdf:RDF id="el53">
      <cc:Work rdf:about="" id="el54">
        <dc:format id="el55">image/svg+xml</dc:format>
        <dc:type rdf:resource="http://purl.org/dc/dcmitype/StillImage" id="el56"/>
        <dc:title id="el57"/>
        <cc:license rdf:resource="" id="el58"/>
        <dc:creator id="el59">
          <cc:Agent id="el60">
            <dc:title id="el61">Robert Brooks</dc:title>
          </cc:Agent>
        </dc:creator>
      </cc:Work>
    </rdf:RDF>
  </metadata>
  <g inkscape:label="Layer 1" inkscape:groupmode="layer" id="layer1" transform="translate(-80.333106,-61.710664)">
    <g id="g8369" transform="translate(-660.05587,-103.66748)">
      <g transform="matrix(0.77155485,0,0,0.77155485,903.45822,11.793984)" id="g6566">
        <g id="g6516">
          <g transform="translate(16.604845,-30.774312)" id="g6467">
            <path sodipodi:nodetypes="ccsssccscsc" inkscape:connector-curvature="0" id="path6460" d="m -186.81537,273.02945 c -0.38317,0.0351 -0.7529,0.2031 -1.03125,0.46875 -7.78728,7.14059 -10.50104,16.59782 -11.125,24.46875 -0.31198,3.93546 -0.39154,7.49701 -0.024,10.25 0.18378,1.37649 0.39818,2.566 0.625,3.5 0.22682,0.934 0.42322,1.54354 0.75,2.15625 0.40672,0.82611 4.01716,-0.82899 3.55429,-1.625 0.0137,0.0256 -2.39745,-6.41774 -1.49907,-14 0.86221,-7.27693 3.06572,-15.83167 10.03125,-22.21875 0.53385,-0.47566 0.71857,-1.303 0.43774,-1.96055 -0.28083,-0.65756 -1.00623,-1.0962 -1.71899,-1.03945 z" style="font-size: medium; font-style: normal; font-variant: normal; font-weight: normal; font-stretch: normal; text-indent: 0px; text-align: start; text-decoration: none; line-height: normal; letter-spacing: normal; word-spacing: normal; text-transform: none; direction: ltr; writing-mode: lr-tb; text-anchor: start; baseline-shift: baseline; color: rgb(0, 0, 0); fill: rgb(0, 128, 0); fill-opacity: 1; stroke: rgb(2, 38, 2); stroke-width: 6.1726px; stroke-linejoin: round; stroke-miterlimit: 4; stroke-opacity: 1; stroke-dasharray: none; marker: none; visibility: visible; display: inline; overflow: visible; font-family: Sans;"/>
            <path style="font-size: medium; font-style: normal; font-variant: normal; font-weight: normal; font-stretch: normal; text-indent: 0px; text-align: start; text-decoration: none; line-height: normal; letter-spacing: normal; word-spacing: normal; text-transform: none; direction: ltr; writing-mode: lr-tb; text-anchor: start; baseline-shift: baseline; color: rgb(0, 0, 0); fill: rgb(131, 201, 27); fill-opacity: 1; stroke: none; stroke-width: 0; marker: none; visibility: visible; display: inline; overflow: visible; font-family: Sans;" d="m -186.81537,273.02945 c -0.38317,0.0351 -0.7529,0.2031 -1.03125,0.46875 -7.78728,7.14059 -10.50104,16.59782 -11.125,24.46875 -0.31198,3.93546 -0.39154,7.49701 -0.024,10.25 0.18378,1.37649 0.39818,2.566 0.625,3.5 0.22682,0.934 0.42322,1.54354 0.75,2.15625 0.40672,0.82611 4.01716,-0.82899 3.55429,-1.625 0.0137,0.0256 -2.39745,-6.41774 -1.49907,-14 0.86221,-7.27693 3.06572,-15.83167 10.03125,-22.21875 0.53385,-0.47566 0.71857,-1.303 0.43774,-1.96055 -0.28083,-0.65756 -1.00623,-1.0962 -1.71899,-1.03945 z" id="path6287" inkscape:connector-curvature="0" sodipodi:nodetypes="ccsssccscsc"/>
            <path inkscape:connector-curvature="0" style="opacity: 0.470177; color: rgb(0, 0, 0); fill: rgb(27, 75, 20); fill-opacity: 1; fill-rule: nonzero; stroke: none; stroke-width: 0; marker: none; visibility: visible; display: inline; overflow: visible;" d="m -270.59375,1313.25 c -8.50612,5.4992 -20.89028,18.1734 -36.1875,52.4688 -14.20085,31.8374 -5.34375,81.6477 -5.34375,83.7187 0,1.6203 -3.26337,4.6733 -9.5,2.5313 0.13979,0.6399 0.26354,1.2873 0.40625,1.875 0.85727,3.53 1.60868,5.8404 2.84375,8.1562 1.53721,3.1223 15.18693,-3.1477 13.4375,-6.1562 0.0518,0.097 -9.08295,-24.2489 -5.6875,-52.9063 3.25875,-27.5034 11.57984,-59.8286 37.90625,-83.9687 1.57799,-1.406 2.37166,-3.6296 2.125,-5.7188 z" transform="matrix(0.26458334,0,0,0.26458334,-113.38125,-72.947914)" id="path6462"/>
          </g>
          <g inkscape:transform-center-y="27.003735" inkscape:transform-center-x="63.478862" transform="matrix(-0.74664804,0.66521929,0.66521929,0.74664804,-440.04009,158.2327)" id="g6416">
            <g id="g6418">
              <path inkscape:connector-curvature="0" id="path6420" d="m -135.81248,224.14722 c 3.44683,-3.23155 9.12459,-5.4022 13.42224,-2.52769 2.33443,2.01767 4.45298,4.61994 4.72477,7.83171 0.41676,2.0065 -0.90789,4.07213 1.51546,5.08686 2.49972,2.40423 4.42545,6.06089 3.20792,9.57797 -1.69209,5.42662 -7.97856,7.75241 -13.23257,7.13274 -6.60756,-0.72052 -12.98214,-3.24117 -18.57108,-6.7884 -1.35509,-1.27819 -2.84577,-2.5584 -1.32098,-4.60825 2.41558,-5.775 5.59327,-11.4406 10.25424,-15.70494 z" style="color: rgb(0, 0, 0); fill: rgb(99, 210, 86); fill-opacity: 1; fill-rule: nonzero; stroke: rgb(2, 38, 2); stroke-width: 6.1726px; stroke-linejoin: round; stroke-miterlimit: 4; stroke-opacity: 1; stroke-dasharray: none; marker: none; visibility: visible; display: inline; overflow: visible;"/>
              <path sodipodi:nodetypes="csscsc" inkscape:connector-curvature="0" id="path6436" d="m -146.87212,242.23678 c 0.62619,1.3307 15.21179,9.28102 24.26552,7.27967 7.43624,-1.64379 9.62797,-7.59277 8.37554,-11.42829 -1.2524,-3.83553 -3.9138,-5.79243 -5.55757,-5.40105 1.87862,-0.78276 1.72204,-14.16795 -9.08005,-12.21105 -10.80209,1.9569 -17.90348,20.50253 -18.00344,21.76072 z" style="color: rgb(0, 0, 0); fill: rgb(136, 222, 38); fill-opacity: 1; fill-rule: nonzero; stroke: none; stroke-width: 0; marker: none; visibility: visible; display: inline; overflow: visible;" inkscape:transform-center-x="-56.802485" inkscape:transform-center-y="-26.034468"/>
              <path inkscape:transform-center-y="-26.034468" inkscape:transform-center-x="-56.802485" style="color: rgb(0, 0, 0); fill: url(&quot;#linearGradient6607&quot;); fill-opacity: 1; fill-rule: nonzero; stroke: none; stroke-width: 0; marker: none; visibility: visible; display: inline; overflow: visible;" d="m -145.54662,243.72454 c 0.62619,1.3307 15.21179,9.28102 24.26552,7.27967 7.43624,-1.64379 9.62797,-7.59277 8.37554,-11.42829 -1.2524,-3.83553 -3.9138,-5.79243 -5.55757,-5.40105 1.87862,-0.78276 1.72204,-14.16795 -9.08005,-12.21105 -10.80209,1.9569 -17.90348,20.50253 -18.00344,21.76072 z" id="path6426" inkscape:connector-curvature="0" sodipodi:nodetypes="csscsc"/>
              <path sodipodi:nodetypes="cccccc" inkscape:connector-curvature="0" id="path6428" d="m -125.64038,221.77311 c -0.59406,0.009 -1.22656,0.0679 -1.90169,0.19018 -10.80209,1.95691 -17.90824,20.50378 -18.0082,21.76198 0.0717,0.1523 0.91713,-0.57497 1.32531,-0.27409 11.42529,-3.1353 19.4347,-6.80401 26.10867,-9.59817 1.36645,-2.03648 0.75339,-12.20904 -7.52409,-12.0799 z" style="opacity: 0.893805; color: rgb(0, 0, 0); fill: url(&quot;#linearGradient6609&quot;); fill-opacity: 1; stroke: none; stroke-width: 0; marker: none; visibility: visible; display: inline; overflow: visible;"/>
              <path inkscape:connector-curvature="0" style="color: rgb(0, 0, 0); fill: rgb(99, 210, 86); fill-opacity: 1; fill-rule: nonzero; stroke: none; stroke-width: 0; marker: none; visibility: visible; display: inline; overflow: visible;" d="m -208,1197.5 c 0,0 6.9832,29.8349 11.125,40.7812 0.3598,0.9511 1.6014,7.2177 2.1875,8.6563 -8.1398,8.1592 -22.655,34.4116 -26.1875,40.75 4.4874,-6.8575 23.7694,-30.2128 28.0625,-36.2187 7.2299,17.238 21.54345,49.5911 22.28125,51.3124 0.8875,2.071 -4.1581,-11.8326 -9.1875,-26.625 -1.12142,-3.2982 -3.14999,-8.6866 -5.53125,-14.875 l 40.59375,-2.2187 -42.28125,-2.1563 c -2.63689,-6.7785 -5.59714,-14.2714 -8.5625,-21.6562 6.1718,0.6662 25.8683,2.8424 31.1875,3.9062 0.3922,0.079 0.63545,0.1175 0.71875,0.125 1.2257,0.1112 -28.83165,-6.9461 -33.34375,-7.5937 -5.8732,-14.5688 -9.4361,-30.6638 -11.0625,-34.1875 z m -12.90625,90.25 c -0.3133,0.482 -0.56935,0.8887 -0.71875,1.1875 -0.4246,0.8493 -0.0101,0.1188 0.71875,-1.1875 z" transform="matrix(0,-0.26458334,0.26458334,0,-462.38244,188.71375)" id="path6430"/>
              <path inkscape:connector-curvature="0" id="path6497" transform="matrix(-0.19755063,0.17600594,0.17600594,0.19755063,-397.68499,44.689208)" d="m -287.8125,1172.375 c -3.58185,0.01 -7.08245,0.241 -10.5,0.75 13.67894,13.0312 31.70499,21.8758 43.5,26.5938 18.82754,7.531 21.78125,7.9374 21.78125,7.9374 0,0 -13.38894,19.6676 -15.0625,47.2813 -0.2727,4.4996 -0.45127,8.5977 -0.53125,12.375 23.57046,-23.3254 38.84956,-67.1624 37.5,-71.7187 -2.63792,-2.526 -42.33531,-23.316 -76.6875,-23.2188 z" style="color: rgb(0, 0, 0); fill: rgb(8, 133, 4); fill-opacity: 1; fill-rule: nonzero; stroke: none; stroke-width: 0; marker: none; visibility: visible; display: inline; overflow: visible;"/>
            </g>
          </g>
          <path sodipodi:nodetypes="csscsc" inkscape:connector-curvature="0" id="path6283" d="m -167.51775,243.30934 c 1.29493,-0.69718 8.44553,-15.69105 5.9579,-24.62342 -2.04319,-7.33655 -8.1019,-9.20364 -11.86415,-7.7458 -3.76225,1.45781 -5.57249,4.22106 -5.09286,5.84128 -0.88313,-1.83357 -14.2403,-0.95399 -11.70259,9.72659 2.5377,10.68057 21.43995,16.76952 22.7017,16.80135 z" style="color: rgb(0, 0, 0); fill: rgb(54, 158, 42); fill-opacity: 1; fill-rule: nonzero; stroke: none; stroke-width: 0; marker: none; visibility: visible; display: inline; overflow: visible;" inkscape:transform-center-x="29.872341" inkscape:transform-center-y="-56.596713"/>
          <g id="g6380" transform="matrix(-0.70710678,-0.70710678,-0.70710678,0.70710678,-99.604706,-32.447326)" inkscape:transform-center-x="31.412017" inkscape:transform-center-y="-63.225081">
            <g id="g6382">
              <path style="color: rgb(0, 0, 0); fill: rgb(99, 210, 86); fill-opacity: 1; fill-rule: nonzero; stroke: rgb(2, 38, 2); stroke-width: 6.1726px; stroke-linejoin: round; stroke-miterlimit: 4; stroke-opacity: 1; stroke-dasharray: none; marker: none; visibility: visible; display: inline; overflow: visible;" d="m -125.00638,219.77222 c -4.79432,0.007 -8.74493,3.35418 -11.62591,6.87324 -3.61513,4.49766 -5.4063,8.74608 -4.47932,13.9771 -0.4001,1.3597 4.2055,1.50408 5.30813,2.42594 -9.53648,2.93697 7.01455,8.66282 13.10974,8.18271 2.51259,-0.19106 4.80533,-1.3372 6.77245,-2.8479 3.86376,-2.84599 5.04054,-9.00115 1.82834,-12.76511 -0.64629,-1.14991 -2.81792,-2.12328 -3.13301,-2.73246 0.925,-1.33096 0.6485,-3.11766 0.53136,-4.64137 -0.451,-3.54381 -2.53439,-7.36828 -6.25298,-8.2405 -0.67329,-0.16325 -1.36688,-0.23318 -2.0588,-0.23165 z" id="path6384" inkscape:connector-curvature="0" sodipodi:nodetypes="ccccccccccc"/>
              <path inkscape:transform-center-y="-26.034468" inkscape:transform-center-x="-56.802485" style="color: rgb(0, 0, 0); fill: rgb(136, 222, 38); fill-opacity: 1; fill-rule: nonzero; stroke: none; stroke-width: 0; marker: none; visibility: visible; display: inline; overflow: visible;" d="m -145.08646,242.43346 c 0.62619,1.3307 15.46185,6.64346 24.70832,7.33502 7.15856,0.53541 12.73649,-11.40902 3.12239,-16.44189 1.62955,-1.28091 1.14087,-15.33029 -9.66122,-13.37339 -10.80209,1.9569 -18.06953,21.22207 -18.16949,22.48026 z" id="path6386" inkscape:connector-curvature="0" sodipodi:nodetypes="cscsc"/>
              <path inkscape:connector-curvature="0" id="path6449" transform="matrix(-0.18708867,-0.18708867,-0.18708867,0.18708867,38.37973,-18.896751)" d="m -206.21875,1103.2812 c 0,0 -18.33945,34.6144 -21.59375,40.5313 -3.25431,5.9169 -6.79154,23.6665 -9.75,26.625 -1.87791,1.8779 8.63117,9.5989 17.625,15.0625 0.008,0 0.0235,0 0.0312,0 6.18276,2.4705 10.50713,3.6887 11.8125,3.2188 2.42479,-2.8434 22.63019,-46.9653 19.90625,-82.3438 -4.42117,1.2802 -10.33761,0.961 -18.03125,-3.0938 z" style="opacity: 0.460177; color: rgb(0, 0, 0); fill: rgb(4, 87, 3); fill-opacity: 1; fill-rule: nonzero; stroke: none; stroke-width: 0; marker: none; visibility: visible; display: inline; overflow: visible;"/>
              <path sodipodi:nodetypes="csscsc" inkscape:connector-curvature="0" id="path6390" d="m -145.54662,243.72454 c 0.62619,1.3307 15.21179,9.28102 24.26552,7.27967 7.43624,-1.64379 9.62797,-7.59277 8.37554,-11.42829 -1.2524,-3.83553 -3.9138,-5.79243 -5.55757,-5.40105 1.87862,-0.78276 1.72204,-14.16795 -9.08005,-12.21105 -10.80209,1.9569 -17.90348,20.50253 -18.00344,21.76072 z" style="color: rgb(0, 0, 0); fill: url(&quot;#linearGradient6611&quot;); fill-opacity: 1; fill-rule: nonzero; stroke: none; stroke-width: 0; marker: none; visibility: visible; display: inline; overflow: visible;" inkscape:transform-center-x="-56.802485" inkscape:transform-center-y="-26.034468"/>
              <path style="opacity: 0.765487; color: rgb(0, 0, 0); fill: rgb(0, 128, 0); fill-opacity: 1; stroke: none; stroke-width: 0; marker: none; visibility: visible; display: inline; overflow: visible;" d="m -125.64038,221.77311 c -0.59406,0.009 -1.22656,0.0679 -1.90169,0.19018 -10.80209,1.95691 -17.90824,20.50378 -18.0082,21.76198 0.0717,0.1523 0.91713,-0.57497 1.32531,-0.27409 11.42529,-3.1353 19.4347,-6.80401 26.10867,-9.59817 1.36645,-2.03648 0.75339,-12.20904 -7.52409,-12.0799 z" id="path6392" inkscape:connector-curvature="0" sodipodi:nodetypes="cccccc"/>
              <path inkscape:connector-curvature="0" id="path6504" transform="matrix(-0.18708867,-0.18708867,-0.18708867,0.18708867,38.37973,-18.896751)" d="m -191.40625,1120.25 c -0.29527,1.0883 -0.6104,2.2484 -0.90625,3.4688 -4.73354,19.5259 -28.97904,50.8872 -31.9375,54.4374 -2.00644,2.4077 -20.33755,1.2601 -35.4375,-1.5624 22.32642,11.7757 46.17114,17.9659 49.375,16.8124 2.26181,-2.6522 19.16928,-39.9499 18.90625,-73.1562 z" style="opacity: 0.384956; color: rgb(0, 0, 0); fill: rgb(136, 222, 38); fill-opacity: 1; fill-rule: nonzero; stroke: none; stroke-width: 0; marker: none; visibility: visible; display: inline; overflow: visible;"/>
              <path id="path6394" transform="matrix(0.26458334,0,0,0.26458334,-113.38125,-72.947914)" d="m -79.78125,1152.5625 c 0.11116,-1.2257 -6.946137,28.8316 -7.59375,33.3437 -14.56877,5.8732 -30.65499,9.4284 -34.17873,11.0548 0,0 29.842629,-6.9775 40.78894,-11.1193 0.95101,-0.3598 7.20115,-1.5994 8.63979,-2.1855 8.159214,8.1398 34.411639,22.6551 40.75,26.1876 -6.857492,-4.4874 -30.212848,-23.7695 -36.21875,-28.0626 17.238045,-7.2299 49.591159,-21.5434 51.3125,-22.2812 2.070924,-0.8875 -11.832687,4.1581 -26.625,9.1875 -7.455422,2.5349 -24.668446,9.261 -40.90625,15.7813 0.666194,-6.1718 2.842437,-25.8684 3.90625,-31.1876 0.07845,-0.3922 0.117441,-0.6354 0.125,-0.7187 z m 48.46875,57.3125 c 0.481964,0.3133 0.888705,0.5694 1.1875,0.7188 0.849268,0.4246 0.118806,0.01 -1.1875,-0.7188 z" style="color: rgb(0, 0, 0); fill: rgb(99, 210, 86); fill-opacity: 1; fill-rule: nonzero; stroke: none; stroke-width: 0; marker: none; visibility: visible; display: inline; overflow: visible;" inkscape:connector-curvature="0" sodipodi:nodetypes="ccccccccscccccc"/>
            </g>
          </g>
          <g id="g6351" transform="matrix(0,1,-1,0,75.3325,389.43453)" inkscape:transform-center-x="-32.543088" inkscape:transform-center-y="60.944345">
            <g id="g6353">
              <path id="path6355" transform="matrix(0,-0.26458334,0.26458334,0,-462.38244,188.71375)" d="m -204.75744,1231.9326 c -11.80413,-23.1166 -27.40791,11.8693 -30.18006,28.3174 -0.0329,0.1753 -0.0617,0.3561 -0.0937,0.5312 -0.0324,0.1971 -0.0623,0.3968 -0.0937,0.5938 -1.38363,7.7951 -1.92244,15.465 -1.15625,22.5 0.0421,0.3865 0.075,0.7738 0.125,1.1562 0.038,0.2865 0.0781,0.5791 0.125,0.8438 0.003,0.02 -0.003,0.042 0,0.062 0.16483,1.1079 0.35737,2.1807 0.59375,3.25 6.21275,28.1055 28.69105,36.3898 43.1875,31.6563 14.49649,-4.7335 21.91673,-14.7874 20.4375,-21 2.95846,7.1002 53.55241,6.5142 46.15625,-34.3126 -7.39616,-40.8267 -76.41692,-36.8092 -79.10119,-33.5986 z" style="color: rgb(0, 0, 0); fill: rgb(99, 210, 86); fill-opacity: 1; fill-rule: nonzero; stroke: rgb(2, 38, 2); stroke-width: 23.3295px; stroke-linejoin: round; stroke-miterlimit: 4; stroke-opacity: 1; stroke-dasharray: none; marker: none; visibility: visible; display: inline; overflow: visible;" inkscape:connector-curvature="0" sodipodi:nodetypes="ccccccccsscsc"/>
              <path sodipodi:nodetypes="csscsc" inkscape:connector-curvature="0" id="path6361" d="m -145.54662,243.72454 c 0.62619,1.3307 15.21179,9.28102 24.26552,7.27967 7.43624,-1.64379 9.62797,-7.59277 8.37554,-11.42829 -1.2524,-3.83553 -3.9138,-5.79243 -5.55757,-5.40105 1.87862,-0.78276 1.72204,-14.16795 -9.08005,-12.21105 -10.80209,1.9569 -17.90348,20.50253 -18.00344,21.76072 z" style="color: rgb(0, 0, 0); fill: url(&quot;#linearGradient6613&quot;); fill-opacity: 1; fill-rule: nonzero; stroke: none; stroke-width: 0; marker: none; visibility: visible; display: inline; overflow: visible;" inkscape:transform-center-x="-56.802485" inkscape:transform-center-y="-26.034468"/>
              <path style="opacity: 0.893805; color: rgb(0, 0, 0); fill: url(&quot;#linearGradient6615&quot;); fill-opacity: 1; stroke: none; stroke-width: 0; marker: none; visibility: visible; display: inline; overflow: visible;" d="m -125.64038,221.77311 c -0.59406,0.009 -1.22656,0.0679 -1.90169,0.19018 -10.80209,1.95691 -17.90824,20.50378 -18.0082,21.76198 0.0717,0.1523 0.91713,-0.57497 1.32531,-0.27409 11.42529,-3.1353 19.4347,-6.80401 26.10867,-9.59817 1.36645,-2.03648 0.75339,-12.20904 -7.52409,-12.0799 z" id="path6363" inkscape:connector-curvature="0" sodipodi:nodetypes="cccccc"/>
              <path inkscape:connector-curvature="0" id="path6365" transform="matrix(0,-0.26458334,0.26458334,0,-462.38244,188.71375)" d="m -208,1197.5 c 0,0 6.9832,29.8349 11.125,40.7812 0.3598,0.9511 1.6014,7.2177 2.1875,8.6563 -8.1398,8.1592 -22.655,34.4116 -26.1875,40.75 4.4874,-6.8575 23.7694,-30.2128 28.0625,-36.2187 7.2299,17.238 21.54345,49.5911 22.28125,51.3124 0.8875,2.071 -4.1581,-11.8326 -9.1875,-26.625 -1.12142,-3.2982 -3.14999,-8.6866 -5.53125,-14.875 l 40.59375,-2.2187 -42.28125,-2.1563 c -2.63689,-6.7785 -5.59714,-14.2714 -8.5625,-21.6562 6.1718,0.6662 25.8683,2.8424 31.1875,3.9062 0.3922,0.079 0.63545,0.1175 0.71875,0.125 1.2257,0.1112 -28.83165,-6.9461 -33.34375,-7.5937 -5.8732,-14.5688 -9.4361,-30.6638 -11.0625,-34.1875 z m -12.90625,90.25 c -0.3133,0.482 -0.56935,0.8887 -0.71875,1.1875 -0.4246,0.8493 -0.0101,0.1188 0.71875,-1.1875 z" style="color: rgb(0, 0, 0); fill: rgb(99, 210, 86); fill-opacity: 1; fill-rule: nonzero; stroke: none; stroke-width: 0; marker: none; visibility: visible; display: inline; overflow: visible;"/>
              <path inkscape:connector-curvature="0" id="path6490" transform="matrix(0,-0.26458334,0.26458334,0,-462.38244,188.71375)" d="m -207.90625,1197.5 c -3.74358,1.7616 -21.36213,32.7501 -27,62.5938 10.94749,-27.2512 32,-43.6563 32,-43.6563 0,0 10.45888,12.547 28.03125,16.3125 17.57237,3.7655 26.35949,7.1268 30.125,9.2188 2.93287,1.6294 14.49866,12.8843 19.46875,26.0937 -0.10569,-0.8298 -0.21819,-1.6656 -0.375,-2.5313 -7.39616,-40.8267 -77.49464,-67.6534 -82.25,-68.0312 z" style="opacity: 0.79646; color: rgb(0, 0, 0); fill: rgb(8, 133, 4); fill-opacity: 1; fill-rule: nonzero; stroke: none; stroke-width: 0; marker: none; visibility: visible; display: inline; overflow: visible;"/>
            </g>
          </g>
          <g inkscape:transform-center-y="-32.543088" inkscape:transform-center-x="-60.944328" transform="translate(-22.647434,-0.97729778)" id="g6340">
            <g id="g6314">
              <path style="color: rgb(0, 0, 0); fill: rgb(99, 210, 86); fill-opacity: 1; fill-rule: nonzero; stroke: rgb(2, 38, 2); stroke-width: 6.1726px; stroke-linejoin: round; stroke-miterlimit: 4; stroke-opacity: 1; stroke-dasharray: none; marker: none; visibility: visible; display: inline; overflow: visible;" d="m -125.00638,219.77222 c -4.79432,0.007 -8.74493,3.35418 -11.62591,6.87324 -3.1448,3.87636 -3.12362,9.19409 -5.02177,13.79835 0.0826,0.94959 -3.68727,6.24069 15.54531,10.60224 3.26787,0.79301 7.14039,-0.30043 9.7422,-2.35349 4.2063,-2.69076 5.6115,-9.16578 2.2736,-13.07436 -0.64629,-1.14991 -2.81792,-2.12328 -3.13301,-2.73246 0.925,-1.33096 0.6485,-3.11766 0.53136,-4.64137 -0.451,-3.54381 -2.53439,-7.36828 -6.25298,-8.2405 -0.67329,-0.16325 -1.36688,-0.23318 -2.0588,-0.23165 z" id="path6304" inkscape:connector-curvature="0" sodipodi:nodetypes="cccccccccc"/>
              <path sodipodi:nodetypes="cscsc" inkscape:connector-curvature="0" id="path6302" d="m -145.08646,242.43346 c 0.62619,1.3307 15.46185,6.64346 24.70832,7.33502 7.15856,0.53541 12.73649,-11.40902 3.12239,-16.44189 1.62955,-1.28091 1.14087,-15.33029 -9.66122,-13.37339 -10.80209,1.9569 -18.06953,21.22207 -18.16949,22.48026 z" style="color: rgb(0, 0, 0); fill: rgb(136, 222, 38); fill-opacity: 1; fill-rule: nonzero; stroke: none; stroke-width: 0; marker: none; visibility: visible; display: inline; overflow: visible;" inkscape:transform-center-x="-56.802485" inkscape:transform-center-y="-26.034468"/>
              <path style="opacity: 0.39823; color: rgb(0, 0, 0); fill: rgb(6, 131, 4); fill-opacity: 1; fill-rule: nonzero; stroke: none; stroke-width: 0; marker: none; visibility: visible; display: inline; overflow: visible;" d="m -17.6875,1122.3438 c -2.167855,3.7014 -7.406623,10.0156 -19.125,13.9687 0,0 6.898496,4.1918 8.78125,5.6563 1.882754,1.4644 -3.772478,22.7995 -3.772478,22.7995 0,0 13.931257,-3.4891 17.866228,-6.8308 -0.235276,-0.128 -0.478468,-0.2492 -0.71875,-0.375 3.514557,-2.7626 4.423818,-21.2357 -3.03125,-35.2187 z" transform="matrix(0.26458334,0,0,0.26458334,-113.38125,-72.947914)" id="path6337" inkscape:connector-curvature="0" sodipodi:nodetypes="ccccccc"/>
              <path inkscape:transform-center-y="-26.034468" inkscape:transform-center-x="-56.802485" style="color: rgb(0, 0, 0); fill: url(&quot;#linearGradient6617&quot;); fill-opacity: 1; fill-rule: nonzero; stroke: none; stroke-width: 0; marker: none; visibility: visible; display: inline; overflow: visible;" d="m -145.54662,243.72454 c 0.62619,1.3307 15.21179,9.28102 24.26552,7.27967 7.43624,-1.64379 9.62797,-7.59277 8.37554,-11.42829 -1.2524,-3.83553 -3.9138,-5.79243 -5.55757,-5.40105 1.87862,-0.78276 1.72204,-14.16795 -9.08005,-12.21105 -10.80209,1.9569 -17.90348,20.50253 -18.00344,21.76072 z" id="path6281" inkscape:connector-curvature="0" sodipodi:nodetypes="csscsc"/>
              <path sodipodi:nodetypes="cccccc" inkscape:connector-curvature="0" id="path6289" d="m -125.64038,221.77311 c -0.59406,0.009 -1.22656,0.0679 -1.90169,0.19018 -10.80209,1.95691 -17.90824,20.50378 -18.0082,21.76198 0.0717,0.1523 0.91713,-0.57497 1.32531,-0.27409 11.42529,-3.1353 19.4347,-6.80401 26.10867,-9.59817 1.36645,-2.03648 0.75339,-12.20904 -7.52409,-12.0799 z" style="opacity: 0.765487; color: rgb(0, 0, 0); fill: rgb(0, 128, 0); fill-opacity: 1; stroke: none; stroke-width: 0; marker: none; visibility: visible; display: inline; overflow: visible;"/>
              <path sodipodi:nodetypes="ccccccccscccccc" inkscape:connector-curvature="0" style="color: rgb(0, 0, 0); fill: rgb(99, 210, 86); fill-opacity: 1; fill-rule: nonzero; stroke: none; stroke-width: 0; marker: none; visibility: visible; display: inline; overflow: visible;" d="m -79.78125,1152.5625 c 0.11116,-1.2257 -6.946137,28.8316 -7.59375,33.3437 -14.56877,5.8732 -30.65499,9.4284 -34.17873,11.0548 0,0 29.842629,-6.9775 40.78894,-11.1193 0.95101,-0.3598 7.20115,-1.5994 8.63979,-2.1855 8.159214,8.1398 34.411639,22.6551 40.75,26.1876 -6.857492,-4.4874 -30.212848,-23.7695 -36.21875,-28.0626 17.238045,-7.2299 49.591159,-21.5434 51.3125,-22.2812 2.070924,-0.8875 -11.832687,4.1581 -26.625,9.1875 -7.455422,2.5349 -24.668446,9.261 -40.90625,15.7813 0.666194,-6.1718 2.842437,-25.8684 3.90625,-31.1876 0.07845,-0.3922 0.117441,-0.6354 0.125,-0.7187 z m 48.46875,57.3125 c 0.481964,0.3133 0.888705,0.5694 1.1875,0.7188 0.849268,0.4246 0.118806,0.01 -1.1875,-0.7188 z" transform="matrix(0.26458334,0,0,0.26458334,-113.38125,-72.947914)" id="path6312"/>
              <path inkscape:connector-curvature="0" id="path6511" transform="matrix(0.26458334,0,0,0.26458334,-90.733818,-71.970616)" d="m -202.5625,1180.4375 c -2.89589,6.7621 -4.50422,11.623 -4.59375,12.75 2.3667,5.0294 57.46868,35.0642 91.6875,27.5 8.2038,-1.8135 14.72342,-5.0171 19.71875,-9 -7.47662,4.0001 -31.5169,11.2407 -58.09375,2.5625 -23.032,-7.5207 -45.27476,-20.2861 -48.71875,-33.8125 z" style="color: rgb(0, 0, 0); fill: rgb(6, 131, 4); fill-opacity: 1; fill-rule: nonzero; stroke: none; stroke-width: 0; marker: none; visibility: visible; display: inline; overflow: visible;"/>
            </g>
          </g>
        </g>
      </g>
    </g>
  </g>
</svg>