<?xml version='1.0' encoding='utf-8'?>
<svg xmlns="http://www.w3.org/2000/svg" viewBox="0 0 155.93 155.93"> <g transform="translate(-13.463 -21.947)"> <g transform="translate(13.463 21.947)"> <path d="m155.93 155.93v-155.93h-155.93v155.93h155.93z"/> <path d="m150.83 150.83v-145.73h-145.73v145.73h145.73z" fill="#f90"/> </g> <path d="m38.88047,103.90706c-.6782,1.0684-1.8417,1.7539-2.0146,3.4429-.1162,1.001.3984,1.7949 0,3.4375-.5,2.0625-1.25,1.5625-2.8125,4-.1079.1685.1875,1.1875.9658,1.4038 1.6558-.0146 2.5987.2666 4.2217.0337l1.5527-.8027c1.1846-.3545 5.4126.6714 5.4126.6714 .5952.1508 3.3228,1.1586 3.9497,1.4028 .9092.3359 3.8887,1.5288 4.3282,1.7436 1.4741.6436 5.7412,2.544 6.5249,2.8186 1.6308.642 3.0356.473 5.0376.706-.1182-2.7804.5424-2.2863-1.0943-3.6159-1.353-1.082-3.3906-1.7827-5.084-2.4555-2.7602-1.1324-4.956-2.0821-7.9345-3.1812-.2193-.0918-4.1089-1.7139-5.7749-2.8247 0,0-3.2124-2.8159-3.6597-3.937-.0957-.249-.8857-1.2422-1.0747-1.4277-.2837-.2793-.9961-2.2227-2.544-1.4156zm105.4811.8916c-.119.0362-1.765,1.7969-1.765,1.7969-1.99,1.1426-3.114,3.1426-4.994,4.3565-4.487,2.8979-9.982,5.6811-11.852,6.2285-1.122.3535-2.811.1806-3.587.75-.249.1899-.358,5.5661.063,7.2191 2.863-1.37 5.386-2.235 8.249-3.6976 .436-.1915 3.144-1.4649 3.953-1.816 .809-.3818 3.548-1.687 3.953-1.8471 .28-.0962 3.364-1.3106 3.925-1.4717 0,0 5.684-.4673 8.271-1.1348 .976-1.0825.951-2.0395-.031-3.625-.413-.6836-1.792-1.1094-2.172-1.7622-1.492-2.6123-.446-6.0703-4.013-4.9966zm-37.5851,22.642c-.5278.348-1.2426.823-1.8032,1.078 1.0059,4.21 2.1934,4.2 2.8687-.744l-1.0655-.334zm10.0751,1.349c-.554,1.005-.823,2.414-1.037,2.884-.37.691-1.75,3.704-2.119,4.332-.062.125-1.9762,2.736-2.1315,2.894-1.0849.978-3.3232,2.388-3.3232,2.388-.9951.571-1.9561,1.439-2.7632,2.009-.3735.221-2.9555,1.557-3.5781,1.812-1.5259.638-5.0498,1.482-5.0498,1.482-2.6812.742-10.8433.126-12.5996-.609-1.0352-.429-3.5659-2.203-4.5718-2.882-.6919-.525-2.3242-3.058-2.6689-3.18 0,0-.982-1.46-1.4566-2.144-.3159-.403-1.9355-3.358-2.5718-4.634-.1909-.405-.7329-1.618-1.1157-2.521-.0322-.125-.6899-.276-.7222-.369 .3467,3.903.9561,5.711 1.8912,8.984 0,0 2.2216,7.481 4.4003,10.056 .5684.651 1.9234,1.952 2.1753,2.137 3.1768,2.347 9.044,5.015 15.1622,4.18 .936-.133 5.4291-.954 6.1152-1.116 0,0 2.9931-.839 4.2998-1.475 .1245-.063 3.2329-1.997 4.3188-2.913 .4024-.409 2.1372-2.143 2.4776-2.553 1.639-1.983 4.183-7.755 4.243-7.974 .122-.377.703-1.788.703-1.788 .425-1.472 1.093-7.323 1.028-7.572-.065-.28-1.01-1.147-1.106-1.428zm-35.621.655c.001.125-.27,1.284-.3593,1.816 1.914.858 1.3515.863 3.25-.028-.0323-.125-.794-1.431-.7315-1.432-.9707-.21-1.25-.02-2.1592-.356zm19.44.206c-.0903.375-.6826.568-.7124.724-.5484,1.599.4346,3.247.7563,4.306 .5293-.254 1.3379-.699 1.8062-.734 .3638-1.316.3579-1.972.6875-3.6-.315-.247-.6275-.245-.7251-.712-.5313.004-1.311.167-1.8125.016zm-13.3057.834c-.0898.47-.4336.473-.7124.726 .4507,1.526.2862,4.122 2.9033,3.224 .1558-.064.3379-.659.7124-.725-.102-.936-.3657-2.497-.4003-2.903-.751-.087-1.501-.08-2.503-.322zm8.9995-.078c-.562.036-2.6504.679-3.2436.747 .0005.031.0093,1.063.0097,1.094 0,0-.6103,1.693-.3217,2.503 .0322.156.6279.338.7246.712 2.687-.117 5.5288-.33 4.2783-3.975-.1606-.467-1.1938-.677-1.4473-1.081zm9.0469,5.327c-1.4526,1.857-1.2388,1.261-1.0591,3.947 .5015.152 1.1255.053 1.4405.363 .559-.412.7441-.725 1.4282-1.107-.3877-1.465-.3618-2.059-.7471-3.212-.0933.001-1.0308.072-1.0625.009zm-23.0176,1.639c.0064.75.0152,1.75.0215,2.5 .0313-.001.0093,1.031.0098,1.094 .4057-.066 1.7783-.36 1.7783-.36-.0093-1.031-.0513-2.249-.0288-3.25-.375.004-1.4668.201-1.7808.016zm17.6304.565c-.1841.376-.9927.821-1.0845,1.071-.2431.784.1397,1.687.0225,2.532 .7222.4.4663-.285.7246.712 .3125-.002 1.1865-.166 1.4688-.013 .4033-.378.4931-.816 1.0532-1.071-.1016-.937-.3653-2.466-.3692-2.903-.5947-.12-1.2187-.021-1.8154-.328zm-11.5278.444c-1.7901,2.578-1.6963,2.546-.2964,5.409 .8408-.32 1.4946-.607 2.1499-.738-.0112-1.249-.0239-2.718-.0347-3.968-.6592-.307-1.2524-.27-1.8188-.703zm5.7846.325c-.1845.376-.9633.633-1.0849,1.071-1.0928,3.698.747,3.182 2.9067,3.601 .2046-1.659.1631-2.784-.0376-4.344-.5327-.121-1.2817-.02-1.7842-.328zm24.8777,3.751c-.89,1.883-1.877,3.361-2.481,5.772 3.173,1.879 6.028,3.198 9.759,4.603l1.444.706c.627.307 4.08,1.933 5.053,2.456 .251.123 3.74,2.436 5.094,3.581 0,0 2.119,2.888 3.247,3.19 .876.242 1.968-.079 2.875-.025 .245-.533.988-1.258 1.078-1.791 .533-3.348-.959-2.398 1.046-5.415 4.441-6.789-3.064-3.786-7.978-4.618-1.033-.179-2.227-.95-3.263-1.41-5.333-2.328-10.109-5.349-15.874-7.049zm-51.4924,1.169c-.7813.006-2.7993,1.555-3.5781,1.812-1.4961.482-3.8628,1.44-3.9561,1.472-2.1177.863-5.3838,2.61-7.1621,2.969-2.7769.493-6.1938-.696-8.2808.072 0,0-.8232.023-1.0844,1.073 .2612,1.138.4858,1.964 1.1186,2.865 .4116.59 1.416,1.113 1.8286,1.797 .9844,1.835.2403,2.497 2.1875,3.574l.7217.369c.437-.066.5982.495 1.4409.331 .9356-.196 1.1704-1.948 1.7622-2.172 0,0 .709-1.131 1.0811-1.447 .186-.189 1.1143-1.259 1.4248-1.45 .2485-.189 3.2627-2.122 4.2905-2.568 1.2764-.574 3.6729-1.689 3.9532-1.816 1.0258-.603 3.3627-1.405 3.5805-1.5 1.5571-.608 2.2407-1.051 3.5781-1.813-.226-.842-.0131-1.5-.7407-2.525-.4429-.621-1.041-1.116-2.1655-1.043zm77.3874-24.8392-23.5,9.5002-.346,1.902c-.456,1.473.249,3.498.044,5.031-.118.845-.545,1.973-.687,3.6 .471.277 2.015,1.732 2.171,1.793 .911.493 5.585,2.546 6.872,3.191 1.35.675 5.18,2.642 5.775,2.825 .408.089 3.294,1.346 3.606,1.405 1.127.209 2.685-.336 3.247-.403 2.623-.21 4.564.117 6.475.663 0,0 .849.523 1.1.74s2.243,1.503 1.116,6.084c-.149.605-1.58,1.639-1.762,2.172-.519,1.411.054,2.625-.337,4.347-.181.814-.952,1.977-1.413,2.887 0,0-.648.912-1.053,1.072-.405.159-1.462.731-1.462.731-1.402.513-2.871.494-4.313.038 0,0-1.036-.553-1.443-.706-.22-.061-.54-.933-.728-1.056-1.511-1.112-2.586-2.572-4-3.559-1.007-.742-3.238-2.128-3.238-2.128-1.665-.954-5.337-2.798-5.431-2.859-1.224-.583-3.544-1.344-3.607-1.406-1.602-.986-5.084-2.456-5.084-2.456-1.222-.396-2.162-.669-3.228-1.066-1.4573,1.357-2.9431,2.963-4.6526,4.01-1.2129.698-3.8257,2.127-3.9502,2.191-.8716.382-4.0191,1.41-4.2998,1.475-1.0918.228-5.0244.763-5.0244.763-4.9619.855-10.9419-.405-14.4248-2.031-.2828-.154-2.105-1.263-2.8907-1.787-1.6025-.987-4.041-4.684-6.5376-4.256l-.3374.722c-1.5571.607-2.583,1.241-3.9526,1.847-3.145,1.308-6.8232,2.372-9.3062,4.394-.2485.158-1.5415,2.388-1.79,2.547 0,0-.5239.848-.7095,1.068 0,0-1.4277,1.169-1.8003,1.454-1.3037.98-5.791,2.488-7.893,1.506-.4082-.184-2.0718-1.013-2.544-1.415 0,0-1.58-1.987-1.8027-2.485-.5103-1.151-.2334-1.623-.7412-2.524-.7295-1.275-1.7627-1.454-2.5532-2.51-1.2329-1.645-1.1953-4.489-1.1221-6.834 0,0 .6143-1.224 1.0469-1.79 .4018-.535 2.1401-1.832 2.1401-1.832 .2495-.095 1.3691-.699 1.4316-.731 3.1797-.871 6.1944.79 9.003.297 .7485-.163 4.4853-1.664 5.7622-2.207 .4668-.223 3.9863-1.598 4.6401-1.853 .2803-.097 4.6714-1.853 4.6714-1.853 .1245-.095.5205-1.255.7066-1.444-.0972-.374-.6612-.557-.7251-.713-1.0572-2.959.2861-6.596-.7911-8.275l-1.5776-1.076-19.7505-7.7375-6.4556,1.4936c-2.7153.4299-6.7539-.4096-7.5781-1.7148-.4438-.7153-1.7759-2.9536-1.1064-5.022 .0903-.4072 1.27-1.3237 1.4219-1.8252-.0015-.1562.9272-1.164 1.0498-1.4463 .2763-.5649.1997-9.3461 2.4306-11.5532l1.7686-1.4531c1.9287-.9854 5.2173-.2017 6.8467.3154l1.8315,2.1402c0,0 4.5488,5.5859 4.7373,5.7089 2.3267,1.605 5.395,2.2657 8.3091,3.1778-.2974-1.8726-.9346-3.3047-1.1343-4.6778l-.3706-9.1562c-6.5-10.5-11-24-5.5-35.75s7.5-15.5 21.25-20.75 15.25-4.25 27.75-3.25 25.7502,11 29.2502,17.5 9.25,17.75 5.25,29.5-6.75,6-6.75,11.5l.771,9.437c-.264,1.9087-.681,4.3189-.656,7.1934 7.01-1.8179 10.081-5.2129 10.391-5.4971s1.642-1.3184 1.765-1.7969c.166-.6489 4.104-5.7739 9.353-2.6128 0,0 2.202,1.6372 2.906,3.5684 .192.561.426,2.2153.744,2.8686 .127.2803 1.288.8326 1.447,1.0811 .253.3418.728,1.0562.728,1.0562 .544,1.4643 1.59,3.1738 1.141,5.3969-.151.6573-1.912,2.8916-2.503,3.272l-8.087.0332z"/> <path d="m125.13657,86.24696c-.067-7.7183 2.799-12.3374.562-18.0054 0,0-.862-2.0864-1.46-2.519-1.792-1.2657-4.88-.5821-5.397,1.1098-.456,1.4102 1.036,4.085 1.135,4.6778 .747,6.7753-1.205,8.6982-.599,13.6933 .002.2813 1.475,4.2998 1.475,4.2998 .161.5923 1.024,2.71 1.087,2.8657 .608,1.5572 1.479,4.6748 1.479,4.6748 .688,3.6192-.153,11.1895-1.321,13.3248-.155.2827-1.137,2.291-1.756,2.9218-.279.2207-1.208,1.2603-1.425,1.4497-.932.6646-4.418,2.2886-5.385,2.5474-.3737.0967-3.5641,3.3437-5.0241,4.3564-.8696.6328-2.9228,1.6818-3.2031,1.8408-1.1504.635-4.2974,1.725-4.6714,1.853-3.8648,1.159-12.4561,1.515-15.4619.854-.188-.061-2.6641-.852-3.2593-1.065l-.3813-.716c-.2823-.092-1.0689-.71-1.0689-.71-2.1982-1.199-3.2158-3.253-5.0688-4.2677 0,0-1.8228-1.2031-3.2657-1.7842-2.3833-.9482-5.7798-3.3559-7.2343-5.3437-5.3755-7.1719-2.9961-17.4429-2.042-26.2642 .4619-4.3794-.4585-9.5591-.8316-12.9311-.2363-2.0293.021-4.7505-.0503-5.7808-2.9809-1.3804-3.8242-1.2793-5.3906,1.8594 .3774.2466.1924.561.3848,1.0903-.0342-.312-.3999.7539-.3658,1.0659 .3331,2.3721 1.1563,7.1465.7974,8.9937l-1.4248,1.4497c-3.1665-8.5005-2.4165-21.7505 4.5835-28.5005s15.25-13 29-12.75 28.0002,6.75 33.2502,13.5 7.75,13.75 7.5,21.5-1.75,7.75-3.75,11.5l-1.417-.7905z" fill="#f90"/> <path d="m103.52797,84.62286c-.5918.2242-2.1758,1.3941-2.8628,1.4629-.0625.0005-2.1133,1.3311-2.1748,1.4566-.1846.3139-1.7109,4.4839-.9995,7.1963 .2275.998 3.1313,4.2856 3.6406,5.375 1.0825,2.2715 1.4263,5.8315 3.6533,6.812 1.6319.7358 5.0665.4243 6.8438-.0596 4.646-1.2598 8.677-8.4512 6.715-14.8096 0,0-.796-1.6806-1.116-2.5214 0,0-.729-1.1499-1.078-1.772-.381-.6841-2.178-2.5122-2.178-2.5122-.7864-.5557-2.824-1.2569-2.8879-1.4126-.813-.0552-2.378-.354-2.5342-.3526-.8745.1011-4.0254.6914-5.0215,1.1372z"/> <path d="m70.04457,86.72786c-2.8037,1.9971-3.3071,4.1856-3.5469,5.4063-.6284,3.1616-.8798,6.6015.0884,10.0932 0,0 .5757,1.5264.7344,1.7749 0,0 1.6455,2.3609 1.8345,2.5157 .5034.4018 5.6172,2.7011 8.6435,2.081 .5615-.0991 3.3589-1.8735 3.5747-2.188 .5557-.7861 1.3506-2.7929 1.4434-2.8877 .4316-.6909 1.8149-4.354 1.8618-4.4858 1.2339-3.4707 2.0625-4.4375 1.5-6.125l-4-5.5625c-2.875-2.5625-7.395-1.9136-8.8936-1.7441-.6557.0683-2.8857.8696-3.2402,1.122z"/> <path d="m91.25507,121.45056c.7177-.1001 2.5537-1.0225 3.2089-1.1216 .9053-.1328 3.0362.5356 4.6846-.3848 .3106-.1904 1.3296-1.6054 1.4214-1.8252 1.585-4.6074-3.6411-12.5937-5.5254-13.6084 0,0-1.4912-1.5981-3.6094-1.7812-6.1338-.5298-11.5136,19.9763-.1801,18.7212z"/> </g> </svg>